@startuml

class UML_PoliAmbulatorio {
    public static void main(String[] args)
}

class CAmbulatorio  {
    int     codiceIdentificativo;
    String  posizione;
}
class CDate {
    int numGiorni;    
    String toString();
}
class CDates {
    CDate[] dates;
}
class CMedico {
    String specializzazione;
    CDate  dataLaurea;  
    int    orarioInizioVisite;
    int    orarioFineVisite;
    CVisitePazienti visite
}
class CPaziente {
    String nome;
    String codiceTesseraSanitaria;
    String patologia;  
}
class CSocio {
    String nome;
    CDate  inizioPartecipazione;
    int    quotaVersata;
}
class CVisita {
    String descrizione;
    CDate  dataVisita;
    int    orarioInizio;
    int    orarioFine;
}
class CVisite {
    CVisita[] visite
}
class CVisitePaziente {
    CVisite visite
    CPaziente paziente
}
class CVisitePazienti {
    CVisitePaziente[] visitePazienti
}
CMedico *-- "1..1" CVisitePazienti
CVisitePazienti *-- "1..1" CVisite
CVisitePazienti *-- "1..1" CPaziente
CVisite *-- "0..*" CVisita

@enduml
